<svg width="800" height="800" viewBox="0 0 18 18" xmlns="http://www.w3.org/2000/svg"><path fill="gray" d="M9 0a9 9 0 0 0-9 9 9 9 0 0 0 .05.92 9 9 0 0 0 17.9 0A9 9 0 0 0 18 9a9 9 0 0 0-9-9m5.42 13.42c-.01 0-.06.08-.07.08a6.975 6.975 0 0 1-10.7 0c-.01 0-.06-.08-.07-.08a.5.5 0 0 1-.09-.27.52.52 0 0 1 .34-.48c.74-.25 1.45-.49 1.65-.54a.16.16 0 0 1 .03-.13.49.49 0 0 1 .43-.36l1.27-.1a2.1 2.1 0 0 0-.19-.79v-.01a2.8 2.8 0 0 0-.45-.78 3.83 3.83 0 0 1-.79-2.38A3.38 3.38 0 0 1 8.88 4h.24a3.38 3.38 0 0 1 3.1 3.58 3.83 3.83 0 0 1-.79 2.38 2.8 2.8 0 0 0-.45.78v.01a2.1 2.1 0 0 0-.19.79l1.27.1a.49.49 0 0 1 .43.36.16.16 0 0 1 .03.13c.2.05.91.29 1.65.54a.49.49 0 0 1 .25.75"/></svg>